# xmcd
#
# Track frame offsets:
#	150
#	39219
#	49674
#	78538
#	88930
#	96448
#	106362
#	119806
#	132028
#	140552
#	154364
#	165963
#	178181
#
# Disc length: 2560 seconds
#
# Revision: 0
# Processed by: cddbd v1.5.2PL0 Copyright (c) Steve Scherf et al.
# Submitted via: EasyCDDAExtractor 2010.6.0.0
#
DISCID=b109fe0d
DTITLE=Vladimir Vysotsky - 04 Песня О Друге (На Концертах, №4)
DYEAR=2002
DGENRE=Vocal
TTITLE0=Песня О Друге
TTITLE1=К Вершине
TTITLE2=Куплеты Бенгальского
TTITLE3=О Моём Старшине
TTITLE4=Песня Про Снайпера, Который Через 15 Лет После Войны Спился И Сидит В 
TTITLE4=Ресторане
TTITLE5=Я Не Люблю
TTITLE6=Песенка О Переселении Душ
TTITLE7=Посещение Музы, Или Песенка Плагиатора
TTITLE8=Песенка Ни Про Что, Или Что Случилось В Африке
TTITLE9=Песенка О Слухах
TTITLE10=Поездка В Город
TTITLE11=Марш Шахтеров
TTITLE12=Пиратская
EXTD=
EXTT0=
EXTT1=
EXTT2=
EXTT3=
EXTT4=
EXTT5=
EXTT6=
EXTT7=
EXTT8=
EXTT9=
EXTT10=
EXTT11=
EXTT12=
PLAYORDER=
